<?xml version="1.0" encoding="utf-8"?>
<!-- Generator: Adobe Illustrator 16.0.3, SVG Export Plug-In . SVG Version: 6.00 Build 0)  -->
<!DOCTYPE svg PUBLIC "-//W3C//DTD SVG 1.1//EN" "http://www.w3.org/Graphics/SVG/1.1/DTD/svg11.dtd">
<svg version="1.1" id="Ebene_1" xmlns="http://www.w3.org/2000/svg" xmlns:xlink="http://www.w3.org/1999/xlink" x="0px" y="0px"
	 width="2000px" height="2000px" viewBox="0 0 2000 2000" enable-background="new 0 0 2000 2000" xml:space="preserve">
<g>
	<path d="M902.525,1137.979c0,118.007-34.538,210.854-103.591,278.556c-69.065,67.701-163.416,101.552-283.04,101.552
		c-133.239,0-236.688-49.886-310.368-149.677c-73.69-99.781-110.523-238.038-110.523-414.774
		c0-192.5,36.833-335.512,110.523-429.047c73.679-93.521,179.043-140.297,316.076-140.297c97.333,0,174.146,21.489,230.429,64.439
		c56.282,42.963,96.11,109.582,119.499,199.841l-216.155,30.18c-20.672-75.577-66.886-113.379-138.666-113.379
		c-61.993,0-110.398,29.505-145.192,88.501c-34.805,59.009-52.202,145.331-52.202,258.979c24.47-40.785,58.447-72.047,101.96-93.804
		c43.5-21.743,92.706-32.627,147.638-32.627c100.595,0,181.347,31.684,242.256,95.027
		C872.064,944.804,902.525,1030.311,902.525,1137.979z M672.504,1144.506c0-59.264-15.09-105.631-45.271-139.073
		c-30.18-33.442-71.651-50.165-124.391-50.165c-48.939,0-89.048,15.091-120.313,45.271c-31.273,30.18-46.9,70.021-46.9,119.496
		c0,61.457,16.034,113.379,48.126,155.796c32.078,42.414,73.678,63.622,124.798,63.622c50.572,0,90.541-17.397,119.906-52.204
		C657.821,1252.457,672.504,1204.866,672.504,1144.506z"/>
	<path d="M1904.996,1137.979c0,118.007-34.541,210.854-103.591,278.556c-69.065,67.701-163.415,101.552-283.043,101.552
		c-133.235,0-236.685-49.886-310.364-149.677c-73.69-99.781-110.524-238.038-110.524-414.774
		c0-192.5,36.834-335.512,110.524-429.047c73.68-93.521,179.041-140.297,316.078-140.297c97.332,0,174.143,21.489,230.427,64.439
		c56.282,42.963,96.112,109.582,119.495,199.841l-216.152,30.18c-20.672-75.577-66.887-113.379-138.667-113.379
		c-61.992,0-110.395,29.505-145.19,88.501c-34.807,59.009-52.203,145.331-52.203,258.979
		c24.471-40.785,58.449-72.047,101.957-93.804c43.502-21.743,92.711-32.627,147.641-32.627c100.595,0,181.352,31.684,242.258,95.027
		C1874.535,944.804,1904.996,1030.311,1904.996,1137.979z M1674.971,1144.506c0-59.264-15.088-105.631-45.268-139.073
		c-30.176-33.442-71.651-50.165-124.393-50.165c-48.94,0-89.045,15.091-120.312,45.271c-31.275,30.18-46.9,70.021-46.9,119.496
		c0,61.457,16.032,113.379,48.124,155.796c32.08,42.414,73.678,63.622,124.802,63.622c50.569,0,90.539-17.397,119.902-52.204
		C1660.292,1252.457,1674.971,1204.866,1674.971,1144.506z"/>
</g>
</svg>
