<?xml version="1.0" encoding="utf-8"?>
<!-- Generator: Adobe Illustrator 16.0.3, SVG Export Plug-In . SVG Version: 6.00 Build 0)  -->
<!DOCTYPE svg PUBLIC "-//W3C//DTD SVG 1.1//EN" "http://www.w3.org/Graphics/SVG/1.1/DTD/svg11.dtd">
<svg version="1.1" id="Ebene_1" xmlns="http://www.w3.org/2000/svg" xmlns:xlink="http://www.w3.org/1999/xlink" x="0px" y="0px"
	 width="2000px" height="2000px" viewBox="0 0 2000 2000" enable-background="new 0 0 2000 2000" xml:space="preserve">
<path d="M420.649,1139.18V805.955l-56.726,230.607h-62.141l-57.58-230.607v333.225h-58.721V754.646h98.913
	c0,0,44.94,173.124,49.314,208.087c3.799-29.454,50.169-208.087,50.169-208.087h95.493v384.534H420.649z"/>
<path d="M808.65,945.63c0,65.562-13.304,115.161-39.907,148.797c-26.608,33.636-64.805,50.454-114.591,50.454
	c-49.791,0-88.036-16.818-114.733-50.454c-26.701-33.636-40.049-83.235-40.049-148.797c0-65.562,13.348-114.778,40.049-147.657
	c26.697-32.875,64.943-49.314,114.733-49.314c49.786,0,87.983,16.439,114.591,49.314C795.346,830.852,808.65,880.068,808.65,945.63z
	 M723.42,945.63c0-87.226-23.089-130.839-69.268-130.839c-46.37,0-69.553,43.613-69.553,130.839c0,43.711,5.844,76.821,17.531,99.34
	c11.687,22.52,29.026,33.779,52.022,33.779c22.991,0,40.286-11.26,51.879-33.779C717.621,1022.451,723.42,989.341,723.42,945.63z"/>
<path d="M1008.473,819.637v319.542h-84.091V819.637H808.65v-64.992h315.553v64.992H1008.473z"/>
<path d="M1144.202,1139.18V754.646h275.93v64.992h-191.839v92.356h174.451v64.992h-174.451v97.202h203.526v64.992H1144.202z"/>
<path d="M1442.355,1139.18V754.646h84.091v319.542h175.592v64.992H1442.355z"/>
</svg>
