<?xml version="1.0" encoding="utf-8"?>
<!-- Generator: Adobe Illustrator 19.2.0, SVG Export Plug-In . SVG Version: 6.00 Build 0)  -->
<svg version="1.1" id="Layer_2" xmlns="http://www.w3.org/2000/svg" xmlns:xlink="http://www.w3.org/1999/xlink" x="0px" y="0px"
	 viewBox="0 0 2000 2000" style="enable-background:new 0 0 2000 2000;" xml:space="preserve">
<path d="M1950,709h-39v-39h33.3c-5.9-16.9-12.2-33.5-19-50H1911v-33c-22.9-50.4-49.8-98.5-80.4-144h-7.6v-11.2
	c-18.4-26.6-38-52.2-58.8-76.8H1734v-34.1c-17.6-19-35.9-37.3-54.9-54.9H1645v-30.2c-24.6-20.8-50.2-40.4-76.8-58.8H1557v-7.6
	c-45.5-30.6-93.6-57.5-144-80.4h-33V74.7c-16.5-6.8-33.1-13.1-50-19V89h-39V50h22.1C1214.6,17.6,1109.3,0,1000,0
	S785.4,17.6,686.9,50H709v39h-39V55.7c-16.9,5.9-33.5,12.2-50,19V89h-33c-50.4,22.9-98.5,49.8-144,80.4v7.6h-11.2
	c-26.6,18.4-52.2,38-76.8,58.8V266h-34.1c-19,17.6-37.3,35.9-54.9,54.9V355h-30.2c-20.8,24.6-40.4,50.2-58.8,76.8V443h-7.6
	c-30.6,45.5-57.5,93.6-80.4,144v33H74.7c-6.8,16.5-13.1,33.1-19,50H89v39H50v-22.1C17.6,785.4,0,890.7,0,1000s17.6,214.6,50,313.1
	V1291h39v39H55.7c5.9,16.9,12.2,33.5,19,50H89v33c22.9,50.4,49.8,98.5,80.4,144h7.6v11.2c18.4,26.6,38,52.2,58.8,76.8H266v34.1
	c17.6,19,35.9,37.3,54.9,54.9H355v30.2c24.6,20.8,50.2,40.4,76.8,58.8H443v7.6c45.5,30.6,93.6,57.5,144,80.4h33v14.3
	c16.5,6.8,33.1,13.1,50,19V1911h39v39h-22.1c98.5,32.4,203.7,50,313.1,50s214.6-17.6,313.1-50H1291v-39h39v33.3
	c16.9-5.9,33.5-12.2,50-19V1911h33c50.4-22.9,98.5-49.8,144-80.4v-7.6h11.2c26.6-18.4,52.2-38,76.8-58.8V1734h34.1
	c19-17.6,37.3-35.9,54.9-54.9V1645h30.2c20.8-24.6,40.4-50.2,58.8-76.8V1557h7.6c30.6-45.5,57.5-93.6,80.4-144v-33h14.3
	c6.8-16.5,13.1-33.1,19-50H1911v-39h39v22.1c32.4-98.5,50-203.7,50-313.1s-17.6-214.6-50-313.1V709z M89,1241H50v-39h39V1241z
	 M89,1152H50v-38h39V1152z M89,1064H50v-39h39V1064z M89,975H50v-39h39V975z M89,886H50v-38h39V886z M89,798H50v-39h39V798z
	 M177,1507h-38v-39h38V1507z M177,1418h-38v-38h38V1418z M177,1330h-38v-39h38V1330z M177,1241h-38v-39h38V1241z M177,1152h-38v-38
	h38V1152z M177,1064h-38v-39h38V1064z M177,975h-38v-39h38V975z M177,886h-38v-38h38V886z M177,798h-38v-39h38V798z M177,709h-38
	v-39h38V709z M177,620h-38v-38h38V620z M177,532h-38v-39h38V532z M266,1595h-39v-38h39V1595z M266,1507h-39v-39h39V1507z M266,1418
	h-39v-38h39V1418z M266,1330h-39v-39h39V1330z M266,1241h-39v-39h39V1241z M266,1152h-39v-38h39V1152z M266,1064h-39v-39h39V1064z
	 M266,975h-39v-39h39V975z M266,886h-39v-38h39V886z M266,798h-39v-39h39V798z M266,709h-39v-39h39V709z M266,620h-39v-38h39V620z
	 M266,532h-39v-39h39V532z M266,443h-39v-38h39V443z M355,1684h-39v-39h39V1684z M355,1595h-39v-38h39V1595z M355,1507h-39v-39h39
	V1507z M355,1418h-39v-38h39V1418z M355,1330h-39v-39h39V1330z M355,1241h-39v-39h39V1241z M355,1152h-39v-38h39V1152z M355,1064
	h-39v-39h39V1064z M355,975h-39v-39h39V975z M355,886h-39v-38h39V886z M355,798h-39v-39h39V798z M355,709h-39v-39h39V709z M355,620
	h-39v-38h39V620z M355,532h-39v-39h39V532z M355,443h-39v-38h39V443z M355,355h-39v-39h39V355z M443,1773h-38v-39h38V1773z
	 M443,1684h-38v-39h38V1684z M443,1595h-38v-38h38V1595z M443,1507h-38v-39h38V1507z M443,1418h-38v-38h38V1418z M443,1330h-38v-39
	h38V1330z M443,1241h-38v-39h38V1241z M443,1152h-38v-38h38V1152z M443,1064h-38v-39h38V1064z M443,975h-38v-39h38V975z M443,886
	h-38v-38h38V886z M443,798h-38v-39h38V798z M443,709h-38v-39h38V709z M443,620h-38v-38h38V620z M443,532h-38v-39h38V532z M443,443
	h-38v-38h38V443z M443,355h-38v-39h38V355z M443,266h-38v-39h38V266z M532,1861h-39v-38h39V1861z M532,1773h-39v-39h39V1773z
	 M532,1684h-39v-39h39V1684z M532,1595h-39v-38h39V1595z M532,1507h-39v-39h39V1507z M532,1418h-39v-38h39V1418z M532,1330h-39v-39
	h39V1330z M532,1241h-39v-39h39V1241z M532,1152h-39v-38h39V1152z M532,1064h-39v-39h39V1064z M532,975h-39v-39h39V975z M532,886
	h-39v-38h39V886z M532,798h-39v-39h39V798z M532,709h-39v-39h39V709z M532,620h-39v-38h39V620z M532,532h-39v-39h39V532z M532,443
	h-39v-38h39V443z M532,355h-39v-39h39V355z M532,266h-39v-39h39V266z M532,177h-39v-38h39V177z M620,1861h-38v-38h38V1861z
	 M620,1773h-38v-39h38V1773z M620,1684h-38v-39h38V1684z M620,1595h-38v-38h38V1595z M620,1507h-38v-39h38V1507z M620,1418h-38v-38
	h38V1418z M620,1330h-38v-39h38V1330z M620,1241h-38v-39h38V1241z M620,1152h-38v-38h38V1152z M620,1064h-38v-39h38V1064z M620,975
	h-38v-39h38V975z M620,886h-38v-38h38V886z M620,798h-38v-39h38V798z M620,709h-38v-39h38V709z M620,620h-38v-38h38V620z M620,532
	h-38v-39h38V532z M620,443h-38v-38h38V443z M620,355h-38v-39h38V355z M620,266h-38v-39h38V266z M620,177h-38v-38h38V177z M709,1861
	h-39v-38h39V1861z M709,1773h-39v-39h39V1773z M709,1684h-39v-39h39V1684z M709,1595h-39v-38h39V1595z M709,1507h-39v-39h39V1507z
	 M709,1418h-39v-38h39V1418z M709,1330h-39v-39h39V1330z M709,1241h-39v-39h39V1241z M709,1152h-39v-38h39V1152z M709,1064h-39v-39
	h39V1064z M709,975h-39v-39h39V975z M709,886h-39v-38h39V886z M709,798h-39v-39h39V798z M709,709h-39v-39h39V709z M709,620h-39v-38
	h39V620z M709,532h-39v-39h39V532z M709,443h-39v-38h39V443z M709,355h-39v-39h39V355z M709,266h-39v-39h39V266z M709,177h-39v-38
	h39V177z M798,1950h-39v-39h39V1950z M798,1861h-39v-38h39V1861z M798,1773h-39v-39h39V1773z M798,1684h-39v-39h39V1684z M798,1595
	h-39v-38h39V1595z M798,1507h-39v-39h39V1507z M798,1418h-39v-38h39V1418z M798,1330h-39v-39h39V1330z M798,1241h-39v-39h39V1241z
	 M798,1152h-39v-38h39V1152z M798,1064h-39v-39h39V1064z M798,975h-39v-39h39V975z M798,886h-39v-38h39V886z M798,798h-39v-39h39
	V798z M798,709h-39v-39h39V709z M798,620h-39v-38h39V620z M798,532h-39v-39h39V532z M798,443h-39v-38h39V443z M798,355h-39v-39h39
	V355z M798,266h-39v-39h39V266z M798,177h-39v-38h39V177z M798,89h-39V50h39V89z M886,1950h-38v-39h38V1950z M886,1861h-38v-38h38
	V1861z M886,1773h-38v-39h38V1773z M886,1684h-38v-39h38V1684z M886,1595h-38v-38h38V1595z M886,1507h-38v-39h38V1507z M886,1418
	h-38v-38h38V1418z M886,1330h-38v-39h38V1330z M886,1241h-38v-39h38V1241z M886,1152h-38v-38h38V1152z M886,1064h-38v-39h38V1064z
	 M886,975h-38v-39h38V975z M886,886h-38v-38h38V886z M886,798h-38v-39h38V798z M886,709h-38v-39h38V709z M886,620h-38v-38h38V620z
	 M886,532h-38v-39h38V532z M886,443h-38v-38h38V443z M886,355h-38v-39h38V355z M886,266h-38v-39h38V266z M886,177h-38v-38h38V177z
	 M886,89h-38V50h38V89z M975,1950h-39v-39h39V1950z M975,1861h-39v-38h39V1861z M975,1773h-39v-39h39V1773z M975,1684h-39v-39h39
	V1684z M975,1595h-39v-38h39V1595z M975,1507h-39v-39h39V1507z M975,1418h-39v-38h39V1418z M975,1330h-39v-39h39V1330z M975,1241
	h-39v-39h39V1241z M975,1152h-39v-38h39V1152z M975,1064h-39v-39h39V1064z M975,975h-39v-39h39V975z M975,886h-39v-38h39V886z
	 M975,798h-39v-39h39V798z M975,709h-39v-39h39V709z M975,620h-39v-38h39V620z M975,532h-39v-39h39V532z M975,443h-39v-38h39V443z
	 M975,355h-39v-39h39V355z M975,266h-39v-39h39V266z M975,177h-39v-38h39V177z M975,89h-39V50h39V89z M1064,1950h-39v-39h39V1950z
	 M1064,1861h-39v-38h39V1861z M1064,1773h-39v-39h39V1773z M1064,1684h-39v-39h39V1684z M1064,1595h-39v-38h39V1595z M1064,1507h-39
	v-39h39V1507z M1064,1418h-39v-38h39V1418z M1064,1330h-39v-39h39V1330z M1064,1241h-39v-39h39V1241z M1064,1152h-39v-38h39V1152z
	 M1064,1064h-39v-39h39V1064z M1064,975h-39v-39h39V975z M1064,886h-39v-38h39V886z M1064,798h-39v-39h39V798z M1064,709h-39v-39h39
	V709z M1064,620h-39v-38h39V620z M1064,532h-39v-39h39V532z M1064,443h-39v-38h39V443z M1064,355h-39v-39h39V355z M1064,266h-39v-39
	h39V266z M1064,177h-39v-38h39V177z M1064,89h-39V50h39V89z M1152,1950h-38v-39h38V1950z M1152,1861h-38v-38h38V1861z M1152,1773
	h-38v-39h38V1773z M1152,1684h-38v-39h38V1684z M1152,1595h-38v-38h38V1595z M1152,1507h-38v-39h38V1507z M1152,1418h-38v-38h38
	V1418z M1152,1330h-38v-39h38V1330z M1152,1241h-38v-39h38V1241z M1152,1152h-38v-38h38V1152z M1152,1064h-38v-39h38V1064z
	 M1152,975h-38v-39h38V975z M1152,886h-38v-38h38V886z M1152,798h-38v-39h38V798z M1152,709h-38v-39h38V709z M1152,620h-38v-38h38
	V620z M1152,532h-38v-39h38V532z M1152,443h-38v-38h38V443z M1152,355h-38v-39h38V355z M1152,266h-38v-39h38V266z M1152,177h-38v-38
	h38V177z M1152,89h-38V50h38V89z M1241,1950h-39v-39h39V1950z M1241,1861h-39v-38h39V1861z M1241,1773h-39v-39h39V1773z M1241,1684
	h-39v-39h39V1684z M1241,1595h-39v-38h39V1595z M1241,1507h-39v-39h39V1507z M1241,1418h-39v-38h39V1418z M1241,1330h-39v-39h39
	V1330z M1241,1241h-39v-39h39V1241z M1241,1152h-39v-38h39V1152z M1241,1064h-39v-39h39V1064z M1241,975h-39v-39h39V975z M1241,886
	h-39v-38h39V886z M1241,798h-39v-39h39V798z M1241,709h-39v-39h39V709z M1241,620h-39v-38h39V620z M1241,532h-39v-39h39V532z
	 M1241,443h-39v-38h39V443z M1241,355h-39v-39h39V355z M1241,266h-39v-39h39V266z M1241,177h-39v-38h39V177z M1241,89h-39V50h39V89z
	 M1330,1861h-39v-38h39V1861z M1330,1773h-39v-39h39V1773z M1330,1684h-39v-39h39V1684z M1330,1595h-39v-38h39V1595z M1330,1507h-39
	v-39h39V1507z M1330,1418h-39v-38h39V1418z M1330,1330h-39v-39h39V1330z M1330,1241h-39v-39h39V1241z M1330,1152h-39v-38h39V1152z
	 M1330,1064h-39v-39h39V1064z M1330,975h-39v-39h39V975z M1330,886h-39v-38h39V886z M1330,798h-39v-39h39V798z M1330,709h-39v-39h39
	V709z M1330,620h-39v-38h39V620z M1330,532h-39v-39h39V532z M1330,443h-39v-38h39V443z M1330,355h-39v-39h39V355z M1330,266h-39v-39
	h39V266z M1330,177h-39v-38h39V177z M1418,1861h-38v-38h38V1861z M1418,1773h-38v-39h38V1773z M1418,1684h-38v-39h38V1684z
	 M1418,1595h-38v-38h38V1595z M1418,1507h-38v-39h38V1507z M1418,1418h-38v-38h38V1418z M1418,1330h-38v-39h38V1330z M1418,1241h-38
	v-39h38V1241z M1418,1152h-38v-38h38V1152z M1418,1064h-38v-39h38V1064z M1418,975h-38v-39h38V975z M1418,886h-38v-38h38V886z
	 M1418,798h-38v-39h38V798z M1418,709h-38v-39h38V709z M1418,620h-38v-38h38V620z M1418,532h-38v-39h38V532z M1418,443h-38v-38h38
	V443z M1418,355h-38v-39h38V355z M1418,266h-38v-39h38V266z M1418,177h-38v-38h38V177z M1507,1861h-39v-38h39V1861z M1507,1773h-39
	v-39h39V1773z M1507,1684h-39v-39h39V1684z M1507,1595h-39v-38h39V1595z M1507,1507h-39v-39h39V1507z M1507,1418h-39v-38h39V1418z
	 M1507,1330h-39v-39h39V1330z M1507,1241h-39v-39h39V1241z M1507,1152h-39v-38h39V1152z M1507,1064h-39v-39h39V1064z M1507,975h-39
	v-39h39V975z M1507,886h-39v-38h39V886z M1507,798h-39v-39h39V798z M1507,709h-39v-39h39V709z M1507,620h-39v-38h39V620z M1507,532
	h-39v-39h39V532z M1507,443h-39v-38h39V443z M1507,355h-39v-39h39V355z M1507,266h-39v-39h39V266z M1507,177h-39v-38h39V177z
	 M1595,1773h-38v-39h38V1773z M1595,1684h-38v-39h38V1684z M1595,1595h-38v-38h38V1595z M1595,1507h-38v-39h38V1507z M1595,1418h-38
	v-38h38V1418z M1595,1330h-38v-39h38V1330z M1595,1241h-38v-39h38V1241z M1595,1152h-38v-38h38V1152z M1595,1064h-38v-39h38V1064z
	 M1595,975h-38v-39h38V975z M1595,886h-38v-38h38V886z M1595,798h-38v-39h38V798z M1595,709h-38v-39h38V709z M1595,620h-38v-38h38
	V620z M1595,532h-38v-39h38V532z M1595,443h-38v-38h38V443z M1595,355h-38v-39h38V355z M1595,266h-38v-39h38V266z M1684,1684h-39
	v-39h39V1684z M1684,1595h-39v-38h39V1595z M1684,1507h-39v-39h39V1507z M1684,1418h-39v-38h39V1418z M1684,1330h-39v-39h39V1330z
	 M1684,1241h-39v-39h39V1241z M1684,1152h-39v-38h39V1152z M1684,1064h-39v-39h39V1064z M1684,975h-39v-39h39V975z M1684,886h-39
	v-38h39V886z M1684,798h-39v-39h39V798z M1684,709h-39v-39h39V709z M1684,620h-39v-38h39V620z M1684,532h-39v-39h39V532z M1684,443
	h-39v-38h39V443z M1684,355h-39v-39h39V355z M1773,1595h-39v-38h39V1595z M1773,1507h-39v-39h39V1507z M1773,1418h-39v-38h39V1418z
	 M1773,1330h-39v-39h39V1330z M1773,1241h-39v-39h39V1241z M1773,1152h-39v-38h39V1152z M1773,1064h-39v-39h39V1064z M1773,975h-39
	v-39h39V975z M1773,886h-39v-38h39V886z M1773,798h-39v-39h39V798z M1773,709h-39v-39h39V709z M1773,620h-39v-38h39V620z M1773,532
	h-39v-39h39V532z M1773,443h-39v-38h39V443z M1861,1507h-38v-39h38V1507z M1861,1418h-38v-38h38V1418z M1861,1330h-38v-39h38V1330z
	 M1861,1241h-38v-39h38V1241z M1861,1152h-38v-38h38V1152z M1861,1064h-38v-39h38V1064z M1861,975h-38v-39h38V975z M1861,886h-38
	v-38h38V886z M1861,798h-38v-39h38V798z M1861,709h-38v-39h38V709z M1861,620h-38v-38h38V620z M1861,532h-38v-39h38V532z M1950,1241
	h-39v-39h39V1241z M1950,1152h-39v-38h39V1152z M1950,1064h-39v-39h39V1064z M1950,975h-39v-39h39V975z M1950,886h-39v-38h39V886z
	 M1950,798h-39v-39h39V798z"/>
</svg>
